<svg width="50" height="50" viewBox="0 0 50 50" fill="none" xmlns="http://www.w3.org/2000/svg">
<path d="M36.08 38.92V8.09003H45.01C47.22 8.09003 49.01 9.88003 49.01 12.09V34.93C49.01 37.14 47.22 38.93 45.01 38.93H36.08V38.92Z" fill="white"/>
<path d="M45 9.09003C46.65 9.09003 48 10.44 48 12.09V34.93C48 36.58 46.65 37.93 45 37.93H37.0699V9.09003H45ZM45 7.09003H35.0699V39.92H45C47.76 39.92 50 37.68 50 34.92V12.09C50 9.33003 47.76 7.09003 45 7.09003Z" fill="black"/>
<path d="M5 38.92C2.79 38.92 1 37.13 1 34.92V12.09C1 9.88003 2.79 8.09003 5 8.09003H13.97V38.93H5V38.92Z" fill="white"/>
<path d="M12.97 9.09003V37.93H5C3.35 37.93 2 36.58 2 34.93V12.09C2 10.44 3.35 9.09003 5 9.09003H12.97ZM14.97 7.09003H5C2.24 7.09003 0 9.33003 0 12.09V34.93C0 37.69 2.24 39.93 5 39.93H14.97V7.09003Z" fill="black"/>
<path d="M17.98 42.13C15.77 42.13 13.98 40.34 13.98 38.13V5C13.98 2.79 15.77 1 17.98 1H32.02C34.23 1 36.03 2.8 36.03 5.01V38.13C36.03 40.34 34.24 42.13 32.03 42.13H17.98Z" fill="white"/>
<path d="M32.02 2C33.68 2 35.03 3.35 35.03 5.01V38.13C35.03 39.78 33.68 41.13 32.03 41.13H17.98C16.33 41.13 14.98 39.78 14.98 38.13V5C14.98 3.35 16.33 2 17.98 2H32.02ZM32.02 0H17.98C15.22 0 12.98 2.24 12.98 5V38.13C12.98 40.89 15.22 43.13 17.98 43.13H32.03C34.79 43.13 37.03 40.89 37.03 38.13V5.01C37.03 2.24 34.79 0 32.02 0Z" fill="black"/>
<path d="M20.6201 9.22998C21.5534 9.22998 22.3101 8.47334 22.3101 7.53998C22.3101 6.60661 21.5534 5.84998 20.6201 5.84998C19.6867 5.84998 18.9301 6.60661 18.9301 7.53998C18.9301 8.47334 19.6867 9.22998 20.6201 9.22998Z" fill="#46E1B4"/>
<path d="M25.0001 9.22998C25.9334 9.22998 26.69 8.47334 26.69 7.53998C26.69 6.60661 25.9334 5.84998 25.0001 5.84998C24.0667 5.84998 23.3101 6.60661 23.3101 7.53998C23.3101 8.47334 24.0667 9.22998 25.0001 9.22998Z" fill="#46E1B4"/>
<path d="M29.3901 9.22998C30.3234 9.22998 31.0801 8.47334 31.0801 7.53998C31.0801 6.60661 30.3234 5.84998 29.3901 5.84998C28.4567 5.84998 27.7001 6.60661 27.7001 7.53998C27.7001 8.47334 28.4567 9.22998 29.3901 9.22998Z" fill="#46E1B4"/>
<path d="M25 42.54V46.68" stroke="black" stroke-width="2" stroke-miterlimit="10" stroke-linecap="round"/>
<path d="M10.45 39.92V44.06" stroke="black" stroke-width="2" stroke-miterlimit="10" stroke-linecap="round"/>
<path d="M39.5599 39.92V44.06" stroke="black" stroke-width="2" stroke-miterlimit="10" stroke-linecap="round"/>
<path d="M31.8 50H18.51C18.51 47.66 20.41 45.76 22.75 45.76H27.56C29.9 45.76 31.8 47.66 31.8 50Z" fill="#46E1B4"/>
<path d="M17.09 48.62H3.80005C3.80005 46.28 5.70005 44.38 8.04005 44.38H12.85C15.19 44.38 17.09 46.28 17.09 48.62Z" fill="#46E1B4"/>
<path d="M46.21 48.62H32.92C32.92 46.28 34.82 44.38 37.16 44.38H41.97C44.31 44.38 46.21 46.28 46.21 48.62Z" fill="#46E1B4"/>
<path d="M20.6201 21.79C21.5534 21.79 22.3101 21.0333 22.3101 20.1C22.3101 19.1666 21.5534 18.41 20.6201 18.41C19.6867 18.41 18.9301 19.1666 18.9301 20.1C18.9301 21.0333 19.6867 21.79 20.6201 21.79Z" fill="#46E1B4"/>
<path d="M25.0001 21.79C25.9334 21.79 26.69 21.0333 26.69 20.1C26.69 19.1666 25.9334 18.41 25.0001 18.41C24.0667 18.41 23.3101 19.1666 23.3101 20.1C23.3101 21.0333 24.0667 21.79 25.0001 21.79Z" fill="#46E1B4"/>
<path d="M29.3901 21.79C30.3234 21.79 31.0801 21.0333 31.0801 20.1C31.0801 19.1666 30.3234 18.41 29.3901 18.41C28.4567 18.41 27.7001 19.1666 27.7001 20.1C27.7001 21.0333 28.4567 21.79 29.3901 21.79Z" fill="#46E1B4"/>
<path d="M20.1399 30.98H20.1299C19.4727 30.98 18.9399 31.5128 18.9399 32.17V35.86C18.9399 36.5172 19.4727 37.05 20.1299 37.05H20.1399C20.7972 37.05 21.3299 36.5172 21.3299 35.86V32.17C21.3299 31.5128 20.7972 30.98 20.1399 30.98Z" fill="#46E1B4"/>
<path d="M29.89 30.98H29.8799C29.2227 30.98 28.6899 31.5128 28.6899 32.17V35.86C28.6899 36.5172 29.2227 37.05 29.8799 37.05H29.89C30.5472 37.05 31.0799 36.5172 31.0799 35.86V32.17C31.0799 31.5128 30.5472 30.98 29.89 30.98Z" fill="#46E1B4"/>
<path d="M25.0101 30.98H25.0001C24.3428 30.98 23.8101 31.5128 23.8101 32.17V35.86C23.8101 36.5172 24.3428 37.05 25.0001 37.05H25.0101C25.6673 37.05 26.2001 36.5172 26.2001 35.86V32.17C26.2001 31.5128 25.6673 30.98 25.0101 30.98Z" fill="#46E1B4"/>
<path d="M18.9399 13.85H31.0699" stroke="black" stroke-width="2" stroke-miterlimit="10" stroke-linecap="round"/>
<path d="M18.9399 26.38H31.0699" stroke="black" stroke-width="2" stroke-miterlimit="10" stroke-linecap="round"/>
</svg>
